<svg width="294" height="74" viewBox="0 0 294 74" fill="none" xmlns="http://www.w3.org/2000/svg">
<path d="M168.826 52.406C168.727 53.2722 168.123 54.0547 167.2 54.1779C166.449 54.278 163.845 54.2838 163.115 54.1635C162.093 53.9951 161.643 53.15 161.57 52.2164C161.182 47.3559 161.87 42.0093 161.57 37.0978C161.56 36.1228 162.144 35.1478 163.191 35.0323C168.424 34.783 173.974 35.3644 179.169 35.0362C182.599 34.8196 185.121 32.9976 184.382 29.3316C183.876 26.8243 181.578 25.7406 179.17 25.5952C174.028 25.2843 168.559 25.8339 163.383 25.6039C162.68 25.5663 161.956 25.1015 161.722 24.4441C161.487 23.7867 161.492 21.2227 161.584 20.4614C161.686 19.6163 162.285 18.8348 163.186 18.7616C168.791 19.0138 174.675 18.443 180.247 18.7616C188.03 19.2073 192.817 25.4124 191.438 32.936C190.715 36.8803 188.463 38.8428 184.94 40.4135C184.851 40.453 184.764 40.3539 184.799 40.5666L192.106 51.5831C192.649 52.4849 192.246 53.6438 191.242 54.0143C190.483 54.2954 187.343 54.2655 186.419 54.1837C185.608 54.1125 185.036 53.8651 184.623 53.1567L177.45 41.8659H168.826V52.4051V52.406Z" fill="#111727"/>
<path d="M144.291 23.7092C153.782 33.2079 149.54 51.1658 135.898 54.1389C134.538 54.4353 132.855 54.676 132.59 52.8617C132.465 52.0061 132.483 50.0156 132.561 49.1292C132.719 47.3303 133.985 47.4988 135.332 47.0387C144.482 43.9155 144.539 29.3897 135.555 26.176C134.246 25.7083 132.719 25.7679 132.56 24.0162C132.486 23.2135 132.466 20.4887 132.713 19.8285C133.235 18.4387 134.465 18.7515 135.62 18.9902C138.865 19.66 141.978 21.3954 144.29 23.7102L144.291 23.7092Z" fill="#111727"/>
<path d="M127.544 18.7937C128.715 18.6734 129.519 19.1488 129.628 20.351C129.697 21.1036 129.723 24.0796 129.506 24.6658C129.083 25.813 127.374 25.8833 126.295 26.3251C117.858 29.7881 117.849 43.3773 126.295 46.8191C127.665 47.3774 129.463 47.2166 129.628 49.0319C129.703 49.8538 129.739 52.3928 129.581 53.132C129.456 53.7162 128.844 54.2264 128.257 54.3342C126.853 54.5921 123.675 53.3688 122.37 52.696C110.151 46.3937 109.499 28.2674 121.205 21.1325C122.863 20.1219 125.608 18.9929 127.545 18.7927L127.544 18.7937Z" fill="#111727"/>
<path d="M83.4649 40.3271V52.8874C83.4649 53.2089 82.8279 53.9356 82.5211 54.078C81.8733 54.3774 79.1341 54.3504 78.3168 54.2869C77.42 54.2176 76.6987 53.875 76.3783 53.0145C76.2205 47.0173 76.3606 40.9903 76.3067 34.9815C76.3675 33.9055 77.3848 33.2827 78.4138 33.2972C85.1721 33.6485 92.3979 32.8448 99.1013 33.2972C99.9442 33.354 100.985 33.6879 101.182 34.6225C101.326 35.3087 101.279 37.9604 101.208 38.7429C101.182 39.0403 101.122 39.3001 100.955 39.5523C100.838 39.7294 100.153 40.3271 99.9795 40.3271H83.4659H83.4649Z" fill="#111727"/>
<path d="M76.836 25.1817C76.6008 24.9507 76.3655 24.5243 76.3195 24.1971C76.2185 23.479 76.2058 20.8688 76.3165 20.1691C76.4087 19.5887 77.0653 18.8957 77.6563 18.7899L101.941 18.7648C102.556 18.838 103.236 19.504 103.336 20.0892C103.455 20.7822 103.456 23.5868 103.336 24.2779C103.217 24.969 102.597 25.5243 101.915 25.6735L78.0218 25.7004C77.6023 25.6937 77.1261 25.4656 76.836 25.1807V25.1817Z" fill="#111727"/>
<path d="M219.886 25.6973V52.8873C219.886 53.4811 219.272 54.2242 218.711 54.4282C218.063 54.6631 214.463 54.6592 213.785 54.4523C213.296 54.3031 212.75 53.7545 212.657 53.2501L212.681 19.9195C212.917 19.4036 213.449 18.8367 214.054 18.7655L229.74 18.7636C230.546 18.7915 231.175 19.4556 231.309 20.2063C231.436 20.9166 231.442 24.0351 231.205 24.6376C231.068 24.985 230.406 25.6973 230.03 25.6973H219.887H219.886Z" fill="#111727"/>
<path d="M202.415 18.7885C204.22 18.9059 206.419 18.5565 208.177 18.7644C208.887 18.8481 209.523 19.5825 209.596 20.2582C209.693 21.1523 209.698 23.315 209.596 24.2053C209.518 24.8887 208.883 25.6153 208.177 25.6991C207.054 25.8319 203.707 25.8338 202.586 25.6991C201.747 25.599 201.175 24.7847 201.08 24.0022C200.985 23.2197 200.977 20.5286 201.245 19.8549C201.458 19.3227 201.873 18.9839 202.415 18.7894V18.7885Z" fill="#111727"/>
<path d="M276.923 41.7705L267.515 53.944C267.109 54.3675 266.481 54.5292 265.902 54.5744C264.918 54.6504 261.673 54.6909 260.849 54.4281C259.799 54.0932 259.342 52.7418 259.986 51.8438L285.347 19.2909C285.689 18.9579 285.992 18.8068 286.475 18.7625C287.627 18.6566 290.457 18.6297 291.577 18.7635C292.772 18.9069 293.561 20.3554 292.841 21.3564L281.347 36.1208L293.667 51.7466C294.477 53.2558 293.756 54.4319 292.068 54.5744C291.096 54.6562 287.74 54.686 286.938 54.4088C286.579 54.2847 286.285 54.0258 286.041 53.7495L276.922 41.7696L276.923 41.7705Z" fill="#111727"/>
<path d="M261.082 19.2811C261.371 18.976 261.848 18.7989 262.269 18.7624C263.462 18.6584 266.103 18.6363 267.271 18.7662C267.609 18.8038 267.911 18.9395 268.198 19.1069L275.337 28.3621C276.164 29.3467 275.524 30.9358 274.231 31.0888C273.162 31.2149 270.212 31.2053 269.132 31.0869C268.535 31.0215 268.287 30.7683 267.91 30.3622C265.397 27.6499 263.273 24.0714 260.808 21.2638C260.355 20.6498 260.588 19.8028 261.08 19.2821L261.082 19.2811Z" fill="#111727"/>
<path d="M242.852 33.4297C243.051 33.242 243.581 32.962 243.856 32.9235C244.631 32.8157 247.174 32.8195 247.955 32.9235C248.592 33.0091 249.305 33.5318 249.439 34.1612L249.483 52.7909C249.437 53.379 248.902 53.9892 248.331 54.1625C247.631 54.3761 244.383 54.3665 243.662 54.175C242.78 53.9411 242.387 53.2577 242.324 52.4098C241.9 46.6879 242.653 40.4674 242.324 34.6925C242.347 34.2449 242.52 33.7416 242.851 33.4297H242.852Z" fill="#111727"/>
<path d="M243.674 18.7888C244.273 18.682 247.662 18.6724 248.235 18.7888C248.76 18.8947 249.251 19.4433 249.437 19.9188L249.483 29.4993C249.437 30.1047 248.915 30.79 248.31 30.9459C247.812 31.0749 244.236 31.0691 243.674 30.968C242.888 30.8275 242.391 30.0402 242.325 29.3097C242.064 26.4376 242.521 23.1796 242.338 20.2672C242.428 19.6156 243.007 18.9091 243.675 18.7898L243.674 18.7888Z" fill="#111727"/>
<path d="M7.11873 -3.05176e-05C8.75832 4.16943 11.3143 8.06361 14.0819 11.594C18.0814 16.6932 22.7944 21.2159 27.7475 25.4113C27.9494 25.8406 27.3927 27.5384 27.2114 28.0581C27.0154 28.6193 25.2543 32.7541 24.9946 32.8137C20.114 30.8464 15.4373 28.3219 11.2868 25.1187C7.66951 22.3266 3.4681 18.1513 1.28556 14.1513C-0.395198 11.0723 -0.498102 9.64978 1.39435 6.64973C2.91732 4.23487 5.06555 1.98267 7.11873 -3.05176e-05Z" fill="#111727"/>
<path d="M37.5688 56.0462C39.8386 59.2551 42.173 62.4737 43.6754 66.1215C35.6607 67.8366 26.2445 65.0589 22.2597 57.6545C17.2644 48.3724 25.383 37.3443 28.5584 28.7051C29.3149 26.6473 30.1803 24.322 28.9915 22.2642C28.3457 21.1458 27.2892 20.2266 25.8966 20.4124C25.6222 20.449 25.2047 20.6983 25.0018 20.6886C24.8401 20.68 22.9761 18.9042 22.7007 18.626C20.5877 16.4932 18.7835 14.0764 17.1174 11.5971C18.6041 10.5999 20.2202 9.62206 21.9216 9.00126C34.8962 4.2649 42.5268 18.6674 39.2917 29.4289C37.4541 35.5435 32.2835 39.149 30.4733 44.9267C28.6818 50.6477 31.7591 55.0145 37.5698 56.0453L37.5688 56.0462Z" fill="#111727"/>
<path d="M57.8514 70.997C55.6865 73.1231 52.4074 73.8787 49.4251 73.3253C49.185 73.281 48.8185 73.281 48.6803 73.0943C48.5421 72.9075 48.1168 71.2328 47.9629 70.8151C46.6732 67.304 44.6465 63.8054 42.6384 60.6446C39.4239 55.5868 35.6811 50.837 31.8364 46.2344C32.7841 43.2064 34.3218 40.0312 36.8542 38.0225C42.9118 45.2883 49.429 52.1941 55.5846 59.3838C56.7146 60.7033 57.8838 62.0229 58.9618 63.3819C59.3009 63.8102 60.5818 65.3559 60.6867 65.7361C60.7974 66.1384 60.2584 67.2944 60.0595 67.7275C59.5479 68.8411 58.7315 70.1327 57.8514 70.997Z" fill="#111727"/>
<path d="M55.6308 56.4979C55.5171 56.598 55.0036 56.033 54.8948 55.9214C52.8965 53.8684 51.1334 51.5151 49.1155 49.4699C49.0136 48.0531 48.9489 46.7028 48.5216 45.337C47.0761 40.7123 42.3043 37.8893 37.7942 36.6699C39.3328 34.1299 40.65 31.4581 41.4223 28.586C46.8791 30.5177 52.3173 33.8104 55.0791 38.9943C57.976 44.4323 57.7595 50.8424 55.6308 56.4989V56.4979Z" fill="#111727"/>
<path d="M11.5312 27.7202C15.37 30.5999 19.8595 32.4084 24.2276 34.3613C24.352 34.5538 23.909 35.4191 23.7983 35.678C22.8957 37.7771 21.6667 39.7493 20.7925 41.8667C18.7629 40.9562 17.0664 39.449 15.6493 37.7762C13.3345 35.0447 11.2215 31.3863 11.5322 27.7202H11.5312Z" fill="#111727"/>
</svg>
